<svg xmlns="http://www.w3.org/2000/svg" width="96" height="96" viewBox="0 0 96 96">
    <g fill="#EA8111" fill-rule="nonzero">
        <path d="M39.445 22.386a1.838 1.838 0 0 0 .055 2.599l7.493 7.183c.008.008.019.01.027.017.162.15.35.274.558.358.016.007.031.01.046.015.2.075.414.12.64.121h.001c.228 0 .443-.046.644-.122.014-.005.028-.007.042-.013.21-.085.4-.21.564-.362.007-.006.015-.008.022-.014l7.494-7.183a1.838 1.838 0 0 0-2.544-2.654l-4.384 4.203V1.857a1.837 1.837 0 1 0-3.675 0v24.678l-4.385-4.204a1.838 1.838 0 0 0-2.598.055zM29.01 31.233l-6.073.129a1.837 1.837 0 0 0 .038 3.674h.04l10.378-.22c.22-.004.427-.053.621-.128.015-.005.03-.008.044-.014.448-.186.805-.543.991-.99l.015-.045c.074-.194.123-.401.127-.62l.22-10.38a1.837 1.837 0 0 0-1.798-1.875c-.98-.011-1.854.784-1.876 1.798l-.129 6.073-15.65-15.65a1.837 1.837 0 1 0-2.598 2.598l15.65 15.65zM22.331 53.957a1.838 1.838 0 0 0 2.654 2.543l7.183-7.493c.008-.008.01-.019.017-.027.15-.162.274-.35.358-.557.007-.017.01-.033.015-.05.074-.198.12-.41.12-.635l.001-.004c0-.226-.046-.44-.121-.641-.006-.015-.008-.03-.014-.044-.085-.211-.21-.4-.362-.564-.006-.007-.008-.015-.014-.022l-7.183-7.494a1.838 1.838 0 0 0-2.654 2.544l4.203 4.384H1.857a1.837 1.837 0 1 0 0 3.675h24.678l-4.204 4.385zM31.362 73.063a1.837 1.837 0 0 0 1.836 1.798h.04a1.837 1.837 0 0 0 1.798-1.876l-.22-10.378a1.823 1.823 0 0 0-.128-.621c-.005-.015-.008-.03-.014-.044a1.837 1.837 0 0 0-.991-.991c-.015-.006-.03-.009-.044-.014a1.822 1.822 0 0 0-.62-.128l-10.38-.22c-.981-.023-1.854.784-1.875 1.798a1.837 1.837 0 0 0 1.798 1.876l6.073.129-15.65 15.65a1.837 1.837 0 1 0 2.598 2.598l15.65-15.65.129 6.073zM56.555 73.614a1.838 1.838 0 0 0-.055-2.599l-7.493-7.183c-.008-.008-.019-.01-.027-.017a1.831 1.831 0 0 0-.559-.359l-.044-.013a1.823 1.823 0 0 0-.643-.122c-.227 0-.443.047-.644.122-.013.005-.027.007-.04.013-.212.085-.402.21-.565.362-.007.006-.015.008-.022.014l-7.494 7.183a1.838 1.838 0 0 0 2.544 2.654l4.384-4.203v24.677a1.837 1.837 0 1 0 3.675 0V69.465l4.385 4.204a1.84 1.84 0 0 0 2.598-.055zM66.99 64.767l6.073-.129a1.837 1.837 0 0 0 1.798-1.876c-.022-1.014-.862-1.837-1.876-1.798l-10.378.22c-.22.004-.427.053-.621.128-.015.005-.03.008-.044.014a1.838 1.838 0 0 0-.991.99l-.015.045a1.824 1.824 0 0 0-.127.62l-.22 10.38a1.837 1.837 0 0 0 3.674.077l.129-6.073 15.65 15.65c.358.36.828.539 1.299.539a1.837 1.837 0 0 0 1.3-3.137l-15.651-15.65zM94.143 46.428H69.465l4.204-4.385a1.838 1.838 0 0 0-2.654-2.543l-7.183 7.493c-.008.008-.01.019-.017.027a1.83 1.83 0 0 0-.358.558c-.007.015-.01.032-.015.048-.074.199-.12.411-.12.636l-.001.004c0 .226.046.441.122.642.005.014.007.028.013.043.085.21.21.4.362.564.006.007.008.015.014.022l7.183 7.494c.362.376.844.566 1.327.566a1.838 1.838 0 0 0 1.327-3.11l-4.203-4.384h24.677a1.837 1.837 0 1 0 0-3.675zM64.638 22.937a1.844 1.844 0 0 0-1.876-1.798 1.837 1.837 0 0 0-1.798 1.876l.22 10.378c.004.22.053.427.128.621.005.015.008.03.014.044.186.448.543.805.991.991.015.006.03.009.044.014.194.075.401.124.62.128l10.38.22h.039a1.837 1.837 0 0 0 .038-3.674l-6.073-.129 15.65-15.65a1.837 1.837 0 1 0-2.598-2.598l-15.65 15.65-.129-6.073z"/>
        <path d="M70.89 15.642a39.186 39.186 0 0 0-15.786-6.637l-.654 3.616a35.535 35.535 0 0 1 14.315 6.02l2.124-2.999zM41.956 12.548l-.613-3.624a39.161 39.161 0 0 0-15.92 6.507l2.097 3.018a35.522 35.522 0 0 1 14.436-5.901zM54.45 83.38l.654 3.615a39.199 39.199 0 0 0 15.782-6.642l-2.124-3A35.54 35.54 0 0 1 54.45 83.38zM25.419 80.576a39.2 39.2 0 0 0 15.924 6.493l.615-3.624a35.557 35.557 0 0 1-14.443-5.887l-2.096 3.018zM18.616 68.72a35.551 35.551 0 0 1-6.026-14.437l-3.618.638a39.19 39.19 0 0 0 6.642 15.92l3.002-2.12zM18.611 27.277l-3.001-2.12A39.22 39.22 0 0 0 8.98 41.08l3.619.64a35.566 35.566 0 0 1 6.011-14.443zM77.528 68.527l3.016 2.1a39.215 39.215 0 0 0 6.49-15.787l-3.62-.631a35.568 35.568 0 0 1-5.886 14.318zM77.52 27.478a35.526 35.526 0 0 1 5.902 14.31l3.62-.63a39.175 39.175 0 0 0-6.505-15.781l-3.016 2.1z"/>
        <circle cx="48" cy="48" r="7.35"/>
    </g>
</svg>
