<svg xmlns="http://www.w3.org/2000/svg" width="90" height="90" viewBox="0 0 90 90">
    <path fill="#EA8111" fill-rule="nonzero" d="M66.316 40.647c-.016-.506-.024-.657-.052-1.334l-.04-.776c.004.08-.04-.633-.032-.558l-.016-.239-4.833.319v.016c.02.283.036.545.051.832l.1 2.91.004.1-.004-.04.004.116v.083-.04.12-.036.12-.04l.004.14-.004-.04.004.159v-.04.179-.04.239-.036V43c0 3.683-.263 7.529-.852 11.347a44.937 44.937 0 0 0 5.128-1.768 79.58 79.58 0 0 0 .553-11.092l-.015-.84zm-49.65 20.962l-13.48-3.913 2.619-2.831C2.457 51.719 0 47.706 0 43c.024-3.647 1.394-6.733 3.631-9.552 3.305-4.025 8.019-6.999 13.294-9.13a74.1 74.1 0 0 0-1.15 5.838c-2.302 1.162-4.416 2.532-6.251 4.133-2.242 1.99-4.121 4.45-4.575 7.413-.303 1.99.107 3.882 1.031 5.642.785 1.489 1.903 2.83 3.114 3.961l2.616-2.83 4.956 13.134zm16.778-41.371c3.345-.41 6.594-.59 9.556-.59 7.027 0 14.142.885 20.887 2.875C73.124 25.251 85.932 31.808 86 43c-.024 3.643-1.39 6.729-3.627 9.548C73.809 62.987 55.757 66.35 43 66.35c-3.544 0-7.254-.215-10.738-.724l.657-4.798c3.265.478 6.764.677 10.085.677 10.79 0 25.075-2.473 33.476-9.795 2.564-2.277 4.647-5.163 4.679-8.711-.052-5.793-5.614-10.017-10.249-12.478C62.605 26.17 52.29 24.49 43 24.49c-3.52 0-7.414.263-11.355.872a45.294 45.294 0 0 1 1.8-5.124zm22.392 49.971a77.813 77.813 0 0 0 5.81-1.126C58.26 77.296 52.192 85.944 43 86c-3.647-.024-6.733-1.39-9.552-3.627-10.439-8.568-13.8-26.616-13.8-39.373 0-7.023.885-14.142 2.875-20.887C25.251 12.876 31.808.068 43 0c5.79 0 10.46 3.687 13.8 8.114l3.097-2.297 2.43 13.82-12.519-6.343 3.098-2.297C50.593 7.863 47.073 4.845 43 4.845c-5.793.052-10.017 5.618-12.478 10.253C26.17 23.395 24.49 33.71 24.49 43c0 10.79 2.473 25.075 9.799 33.476 2.277 2.564 5.16 4.647 8.711 4.679 5.793-.052 10.017-5.614 12.478-10.249l.358-.697z"/>
</svg>
